<svg width="25" height="25" viewBox="0 0 25 25" fill="none" xmlns="http://www.w3.org/2000/svg">
<path d="M6.8254 21.2518H3.8254C3.2724 21.2518 2.8254 20.8038 2.8254 20.2518V12.2518C2.8254 11.6998 3.2724 11.2518 3.8254 11.2518H6.8254C7.3784 11.2518 7.8254 11.6998 7.8254 12.2518V20.2518C7.8254 20.8038 7.3784 21.2518 6.8254 21.2518ZM13.8254 21.2518H10.8254C10.2724 21.2518 9.8254 20.8038 9.8254 20.2518V3.2518C9.8254 2.6998 10.2724 2.2518 10.8254 2.2518H13.8254C14.3784 2.2518 14.8254 2.6998 14.8254 3.2518V20.2518C14.8254 20.8038 14.3784 21.2518 13.8254 21.2518ZM20.8254 21.2518H17.8254C17.2724 21.2518 16.8254 20.8038 16.8254 20.2518V9.2518C16.8254 8.6998 17.2724 8.2518 17.8254 8.2518H20.8254C21.3784 8.2518 21.8254 8.6998 21.8254 9.2518V20.2518C21.8254 20.8038 21.3784 21.2518 20.8254 21.2518Z" fill="#EB5757"/>
</svg>
