<svg width="40" height="40" viewBox="0 0 40 40" fill="none" xmlns="http://www.w3.org/2000/svg">
<path fill-rule="evenodd" clip-rule="evenodd" d="M3.01388 27.2677C-1.00463 23.2492 -1.00463 16.7339 3.01388 12.7154L12.7154 3.01388C16.7339 -1.00463 23.2492 -1.00463 27.2677 3.01388C29.1354 4.8815 30.135 7.28842 30.2667 9.73335C32.7116 9.865 35.1185 10.8646 36.9861 12.7323C41.0046 16.7508 41.0046 23.2661 36.9861 27.2846L27.2846 36.9861C23.2661 41.0046 16.7508 41.0046 12.7323 36.9861C10.8646 35.1185 9.865 32.7116 9.73335 30.2667C7.28842 30.135 4.8815 29.1354 3.01388 27.2677ZM18.5372 16.5952H29.3697C30.0181 16.531 30.6814 16.6509 31.2746 16.955C32.4004 17.5175 33.1736 18.6811 33.1736 20.0252C33.1736 21.1509 32.6314 22.1499 31.7938 22.7753L22.4338 32.1353C21.0943 33.4748 18.9225 33.4748 17.583 32.1353C16.2435 30.7958 16.2435 28.6241 17.583 27.2846L21.4124 23.4552L10.3069 23.4552C8.9627 23.4552 7.79912 22.6821 7.23662 21.5562C6.5755 20.2667 6.78484 18.646 7.86466 17.5662L17.5662 7.86466C18.9057 6.52515 21.0775 6.52515 22.417 7.86466C23.7565 9.20416 23.7565 11.3759 22.417 12.7154L18.5372 16.5952Z" fill="url(#paint0_linear)"/>
<defs>
<linearGradient id="paint0_linear" x1="40" y1="-1.04904e-05" x2="11.4595" y2="4.75675" gradientUnits="userSpaceOnUse">
<stop stop-color="#67E799"/>
<stop offset="1" stop-color="#4AD07E"/>
</linearGradient>
</defs>
</svg>
