<svg width="32" height="32" viewBox="0 0 32 32" fill="none" xmlns="http://www.w3.org/2000/svg">
<path d="M16 2.66666C8.77199 2.66666 2.66666 8.772 2.66666 16C2.66666 23.228 8.77199 29.3333 16 29.3333C23.228 29.3333 29.3333 23.228 29.3333 16C29.3333 8.772 23.228 2.66666 16 2.66666ZM16 9.33333C18.3027 9.33333 20 11.0293 20 13.3333C20 15.6373 18.3027 17.3333 16 17.3333C13.6987 17.3333 12 15.6373 12 13.3333C12 11.0293 13.6987 9.33333 16 9.33333ZM9.19199 22.3627C10.388 20.6027 12.3827 19.4293 14.6667 19.4293H17.3333C19.6187 19.4293 21.612 20.6027 22.808 22.3627C21.104 24.1867 18.6867 25.3333 16 25.3333C13.3133 25.3333 10.896 24.1867 9.19199 22.3627Z" fill="white"/>
</svg>
